# xmcd CD database file
#
# Track frame offsets:
#	150
#	13445
#	30726
#	44353
#	59236
#	71463
#	86125
#	103653
#	115664
#	127753
#	142256
#	157629
#	171567
#	185804
#	200084
#	214408
#	228517
#	238865
#	252278
#	266849
#
# Disc length: 3730 seconds
#
# Revision: 0
# Processed by: cddbd v1.5.2PL0 Copyright (c) Steve Scherf et al.
# Submitted via: CDex 1.51
#
DISCID=3a0e9014
DTITLE=Diverse - 100 Black and Soul Hits CD1
DYEAR=1900
DGENRE=Jazz
TTITLE0=In The Mood
TTITLE1=Sentimental Jourey
TTITLE2=(Get Your Kicks On) Route 66
TTITLE3=I've Got A Crush on You
TTITLE4=Sophisticated Lady
TTITLE5=At The Woodchopper's Ball
TTITLE6=The Girl From Ipanema
TTITLE7=Honeysuckle Rose
TTITLE8=We're Thought
TTITLE9=I Left My Baby
TTITLE10=Embraceable You
TTITLE11=Frenesi
TTITLE12=Drummin' Man
TTITLE13=Eager Beaver
TTITLE14=(I Love You) For Sentimental Reason
TTITLE15=Bei mir bist du schön
TTITLE16=Ain't That Fine
TTITLE17=Birningham Bounce
TTITLE18=Jazz Me Blues
TTITLE19=Jersey Bounce
EXTD=
EXTT0=
EXTT1=
EXTT2=
EXTT3=
EXTT4=
EXTT5=
EXTT6=
EXTT7=
EXTT8=
EXTT9=
EXTT10=
EXTT11=
EXTT12=
EXTT13=
EXTT14=
EXTT15=
EXTT16=
EXTT17=
EXTT18=
EXTT19=
PLAYORDER=
